<svg id="svg" version="1.1" xmlns="http://www.w3.org/2000/svg" xmlns:xlink="http://www.w3.org/1999/xlink" width="400" height="300" viewBox="0, 0, 400,300"><g id="svgg"><path id="path0" d="M0.000 150.038 L 0.000 300.075 200.000 300.075 L 400.000 300.075 400.000 150.038 L 400.000 0.000 200.000 0.000 L 0.000 0.000 0.000 150.038 M250.263 105.024 L 250.263 122.725 234.734 122.803 L 219.205 122.881 218.991 125.131 C 218.874 126.369,218.639 127.854,218.470 128.432 C 218.300 129.010,217.946 130.225,217.681 131.133 C 217.417 132.041,217.094 133.053,216.963 133.383 C 215.991 135.843,215.541 136.827,214.941 137.803 C 214.563 138.419,214.254 138.992,214.254 139.076 C 214.254 140.237,209.488 146.130,204.055 151.688 C 201.635 154.164,198.855 157.067,197.877 158.139 C 196.899 159.212,196.028 160.157,195.942 160.240 C 195.795 160.380,193.534 163.301,193.026 164.007 C 192.026 165.396,189.647 170.211,189.647 170.845 C 189.647 171.100,189.512 171.391,189.347 171.493 C 189.182 171.595,189.047 171.954,189.047 172.291 C 189.047 173.050,187.562 174.522,183.342 177.944 C 182.630 178.522,181.860 179.180,181.632 179.406 C 181.403 179.632,181.138 179.738,181.042 179.642 C 180.771 179.371,180.944 173.642,181.277 171.875 C 181.441 171.005,181.653 169.887,181.748 169.392 C 181.843 168.897,182.020 168.357,182.141 168.192 C 182.262 168.027,182.440 167.473,182.537 166.962 C 182.634 166.450,183.039 165.302,183.437 164.411 C 183.836 163.520,184.349 162.352,184.577 161.815 C 184.806 161.279,185.095 160.840,185.220 160.840 C 185.344 160.840,185.446 160.656,185.446 160.431 C 185.446 159.138,190.687 152.711,196.742 146.580 C 201.349 141.915,202.894 140.230,204.579 138.035 C 205.276 137.127,205.983 136.220,206.151 136.020 C 207.488 134.419,210.353 127.557,210.353 125.952 C 210.353 125.520,210.488 125.083,210.653 124.981 C 210.818 124.879,210.953 123.892,210.954 122.788 C 210.955 121.684,211.043 119.464,211.150 117.854 L 211.343 114.929 226.902 114.929 L 242.461 114.929 242.461 105.026 L 242.461 95.124 200.150 95.124 L 157.839 95.124 157.839 105.024 L 157.839 114.923 173.368 115.001 L 188.897 115.079 188.975 129.002 L 189.053 142.926 187.318 144.606 C 183.252 148.544,181.318 150.338,181.138 150.338 C 181.032 150.338,180.945 144.126,180.945 136.534 L 180.945 122.731 165.341 122.731 L 149.737 122.731 149.737 105.226 C 149.737 95.599,149.827 87.632,149.937 87.522 C 150.048 87.412,172.666 87.322,200.200 87.322 L 250.263 87.322 250.263 105.024 M268.509 88.597 C 268.417 89.869,268.414 89.873,267.067 90.023 L 265.716 90.173 265.632 94.015 L 265.548 97.857 264.132 97.766 L 262.716 97.674 262.566 93.923 L 262.416 90.173 261.215 90.023 C 260.045 89.876,260.013 89.840,259.923 88.597 L 259.830 87.322 264.216 87.322 L 268.602 87.322 268.509 88.597 M273.560 87.847 C 273.826 88.655,274.565 90.413,274.883 90.994 C 275.040 91.280,275.169 91.719,275.169 91.969 C 275.169 93.197,277.246 90.018,277.279 88.739 C 277.306 87.702,278.093 87.289,279.865 87.381 L 281.620 87.472 281.620 92.573 L 281.620 97.674 280.270 97.674 L 278.920 97.674 278.770 95.574 L 278.620 93.473 278.119 94.446 C 277.844 94.980,277.531 95.815,277.425 96.300 C 277.166 97.477,276.611 97.885,275.426 97.770 C 274.425 97.673,274.334 97.554,272.952 94.547 C 272.656 93.903,272.601 94.040,272.468 95.747 L 272.318 97.674 270.968 97.674 L 269.617 97.674 269.535 92.498 L 269.453 87.322 271.420 87.322 C 273.028 87.322,273.419 87.418,273.560 87.847 M219.453 147.562 C 219.674 147.934,218.776 156.148,218.453 156.710 C 218.289 156.997,218.155 157.444,218.155 157.704 C 218.155 160.480,213.447 169.616,209.894 173.732 C 208.084 175.829,205.001 179.093,201.239 182.894 C 199.114 185.041,196.757 187.607,196.001 188.597 C 195.245 189.587,194.525 190.470,194.400 190.557 C 194.024 190.823,191.148 195.948,191.148 196.353 C 191.148 196.560,191.030 196.857,190.886 197.014 C 190.646 197.276,190.221 198.632,189.374 201.835 C 189.194 202.515,189.047 203.494,189.047 204.011 L 189.047 204.951 200.150 204.951 L 211.253 204.951 211.253 194.639 L 211.253 184.326 214.884 180.910 C 216.882 179.032,218.632 177.451,218.774 177.398 C 219.313 177.197,219.368 179.155,219.288 195.649 L 219.205 212.603 200.044 212.680 L 180.883 212.758 181.014 206.829 C 181.133 201.445,181.400 199.233,182.162 197.299 C 182.292 196.969,182.480 196.324,182.580 195.866 C 183.747 190.496,188.344 183.851,197.048 174.951 C 201.405 170.496,202.538 169.284,204.877 166.574 C 206.333 164.887,209.350 160.000,209.634 158.869 C 209.736 158.465,209.939 158.060,210.086 157.969 C 210.233 157.878,210.353 157.482,210.353 157.089 C 210.353 156.696,210.488 156.291,210.653 156.189 C 210.818 156.087,210.953 155.719,210.953 155.371 C 210.953 154.953,212.254 153.481,214.779 151.044 C 218.373 147.574,219.127 147.012,219.453 147.562 " stroke="none" fill="#fbfbfb" fill-rule="evenodd"></path><path id="path1" d="M150.038 105.024 L 150.038 122.425 165.566 122.503 L 181.095 122.581 181.173 136.203 L 181.251 149.825 184.404 146.715 C 186.138 145.004,187.757 143.492,188.002 143.355 C 188.386 143.140,188.447 141.178,188.447 129.170 L 188.447 115.234 172.918 115.156 L 157.389 115.079 157.389 105.026 L 157.389 94.974 200.000 94.974 L 242.611 94.974 242.611 105.026 L 242.611 115.079 227.082 115.156 L 211.553 115.234 211.553 118.995 C 211.553 129.705,208.878 134.900,197.271 146.737 C 194.439 149.625,191.666 152.528,191.110 153.188 C 190.554 153.848,190.026 154.456,189.937 154.539 C 189.478 154.964,186.647 159.070,186.647 159.310 C 186.647 159.464,186.544 159.635,186.418 159.690 C 184.839 160.380,181.643 170.598,181.338 175.929 L 181.148 179.236 184.723 176.195 C 188.063 173.352,188.334 173.040,188.861 171.423 C 190.768 165.570,193.226 162.158,202.103 153.038 C 210.780 144.125,216.354 136.452,216.354 133.422 C 216.354 133.219,216.474 132.925,216.621 132.768 C 216.957 132.410,218.321 126.782,218.655 124.381 L 218.905 122.581 234.434 122.503 L 249.962 122.425 249.962 105.024 L 249.962 87.622 200.000 87.622 L 150.038 87.622 150.038 105.024 M260.165 88.506 C 260.165 89.347,260.233 89.394,261.590 89.481 L 263.016 89.572 263.100 93.567 L 263.183 97.561 264.150 97.468 L 265.116 97.374 265.266 93.473 L 265.416 89.572 266.692 89.480 C 267.882 89.394,267.967 89.329,267.967 88.505 L 267.967 87.622 264.066 87.622 L 260.165 87.622 260.165 88.506 M270.068 92.573 L 270.068 97.524 270.968 97.524 L 271.868 97.524 271.868 94.824 C 271.868 91.784,272.165 91.450,273.067 93.473 C 273.398 94.216,273.939 95.431,274.270 96.174 C 275.210 98.284,276.045 98.086,277.121 95.499 C 277.584 94.385,278.077 93.345,278.216 93.188 C 278.356 93.032,278.470 92.660,278.470 92.363 C 278.470 92.066,278.605 91.823,278.770 91.823 C 278.949 91.823,279.070 92.980,279.070 94.693 L 279.070 97.562 280.045 97.468 L 281.020 97.374 281.103 92.498 L 281.185 87.622 279.751 87.622 C 278.180 87.622,278.272 87.517,277.092 90.623 C 276.810 91.365,276.464 92.101,276.324 92.258 C 276.184 92.415,276.069 92.797,276.069 93.108 C 276.069 94.348,275.272 93.281,274.139 90.525 L 272.945 87.622 271.506 87.622 L 270.068 87.622 270.068 92.573 M215.180 151.336 C 211.927 154.551,211.717 154.835,210.796 157.252 C 208.729 162.671,206.420 165.924,199.838 172.687 C 192.562 180.162,191.535 181.294,189.093 184.532 C 187.057 187.230,183.646 193.490,183.646 194.527 C 183.646 194.795,183.535 195.082,183.400 195.165 C 183.265 195.249,182.910 196.371,182.611 197.659 C 182.312 198.946,181.938 200.405,181.780 200.900 C 181.622 201.395,181.418 204.197,181.326 207.127 L 181.159 212.453 199.957 212.453 L 218.755 212.453 218.755 195.131 L 218.755 177.809 216.579 179.948 C 215.383 181.124,213.762 182.691,212.978 183.430 L 211.553 184.774 211.553 195.013 L 211.553 205.251 200.141 205.251 C 187.174 205.251,188.107 205.468,188.737 202.600 C 189.582 198.752,191.158 194.640,192.720 192.209 C 194.715 189.102,197.011 186.445,202.970 180.345 C 208.616 174.566,210.172 172.785,212.363 169.596 C 215.979 164.330,217.846 159.053,218.591 151.988 C 219.079 147.361,219.181 147.381,215.180 151.336 " stroke="none" fill="#050505" fill-rule="evenodd"></path><path id="path2" d="M268.008 88.430 C 267.969 89.335,267.896 89.393,266.692 89.480 L 265.416 89.572 265.266 93.521 C 265.184 95.692,265.218 97.406,265.341 97.329 C 265.465 97.252,265.566 95.509,265.566 93.456 L 265.566 89.722 266.776 89.722 C 268.079 89.722,268.408 89.358,268.182 88.169 C 268.079 87.629,268.040 87.687,268.008 88.430 M269.890 92.573 C 269.890 95.379,269.935 96.567,269.990 95.214 C 270.046 93.860,270.046 91.564,269.991 90.112 C 269.936 88.660,269.891 89.767,269.890 92.573 M281.109 92.574 C 281.060 95.297,281.122 97.525,281.245 97.525 C 281.369 97.525,281.470 95.296,281.470 92.573 C 281.470 86.166,281.224 86.167,281.109 92.574 M261.432 89.633 L 262.848 89.755 262.946 93.564 L 263.045 97.374 263.030 93.473 L 263.016 89.572 261.515 89.542 L 260.015 89.511 261.432 89.633 M271.929 94.749 L 271.990 97.374 272.092 94.859 C 272.185 92.556,272.232 92.391,272.647 92.908 C 273.076 93.442,273.083 93.435,272.774 92.798 C 272.139 91.487,271.868 92.113,271.929 94.749 M274.879 92.218 C 274.874 92.352,275.009 92.724,275.179 93.043 C 275.522 93.682,276.069 93.824,276.069 93.273 C 276.069 93.081,275.975 93.017,275.860 93.133 C 275.744 93.248,275.479 93.034,275.270 92.658 C 275.061 92.281,274.885 92.083,274.879 92.218 M157.376 95.200 C 157.296 95.408,157.266 99.966,157.310 105.329 L 157.389 115.079 172.918 115.083 L 188.447 115.087 172.993 115.005 L 157.539 114.923 157.539 105.024 L 157.539 95.124 200.000 95.124 L 242.461 95.124 242.461 105.024 L 242.461 114.923 227.157 115.005 L 211.853 115.087 227.232 115.083 L 242.611 115.079 242.611 105.026 L 242.611 94.974 200.066 94.898 C 166.043 94.837,157.492 94.897,157.376 95.200 M181.083 136.234 C 181.083 143.743,181.122 146.815,181.170 143.061 C 181.218 139.306,181.218 133.162,181.170 129.407 C 181.122 125.653,181.083 128.725,181.083 136.234 M218.026 127.703 C 217.916 128.143,217.883 128.561,217.954 128.632 C 218.025 128.702,218.173 128.400,218.283 127.961 C 218.394 127.521,218.426 127.103,218.355 127.032 C 218.284 126.962,218.136 127.264,218.026 127.703 M196.695 147.112 L 192.498 151.388 196.774 147.191 C 200.746 143.292,201.186 142.836,200.971 142.836 C 200.928 142.836,199.004 144.760,196.695 147.112 M185.446 145.686 C 184.217 146.924,183.278 147.937,183.361 147.937 C 183.443 147.937,184.517 146.924,185.746 145.686 C 186.976 144.449,187.914 143.436,187.832 143.436 C 187.749 143.436,186.676 144.449,185.446 145.686 M217.976 148.312 C 217.405 148.987,217.405 148.987,218.029 148.461 C 218.372 148.172,218.744 148.026,218.854 148.136 C 218.964 148.247,219.055 148.180,219.055 147.987 C 219.055 147.438,218.600 147.575,217.976 148.312 M201.633 153.563 C 199.070 156.163,196.712 158.627,196.394 159.040 C 195.697 159.943,195.293 160.341,201.492 154.014 C 204.282 151.167,206.503 148.837,206.429 148.837 C 206.355 148.837,204.197 150.964,201.633 153.563 M218.810 150.225 C 218.780 151.071,218.688 152.219,218.606 152.776 L 218.457 153.788 218.771 152.789 C 218.943 152.239,219.035 151.092,218.975 150.238 L 218.866 148.687 218.810 150.225 M215.145 151.163 L 213.203 153.188 215.229 151.246 C 216.343 150.178,217.254 149.267,217.254 149.221 C 217.254 149.000,216.949 149.281,215.145 151.163 M190.874 153.153 L 190.149 154.089 191.008 153.272 C 191.480 152.824,191.806 152.402,191.732 152.337 C 191.658 152.271,191.272 152.638,190.874 153.153 M218.042 155.901 C 217.939 156.169,217.866 156.613,217.880 156.889 C 217.894 157.164,218.025 156.991,218.170 156.504 C 218.453 155.557,218.353 155.088,218.042 155.901 M193.848 162.041 C 193.326 162.701,192.965 163.241,193.048 163.241 C 193.130 163.241,193.626 162.701,194.149 162.041 C 194.671 161.380,195.032 160.840,194.949 160.840 C 194.867 160.840,194.371 161.380,193.848 162.041 M202.086 170.218 L 200.900 171.493 202.176 170.307 C 203.362 169.204,203.589 168.942,203.362 168.942 C 203.313 168.942,202.739 169.516,202.086 170.218 M181.135 174.371 C 181.031 174.892,180.966 176.213,180.990 177.307 C 181.033 179.158,181.051 179.098,181.252 176.444 C 181.481 173.428,181.446 172.814,181.135 174.371 M208.236 174.869 L 207.202 175.994 208.327 174.960 C 209.374 173.997,209.590 173.743,209.361 173.743 C 209.311 173.743,208.805 174.250,208.236 174.869 M182.277 178.320 L 181.395 179.295 182.371 178.413 C 182.907 177.929,183.346 177.490,183.346 177.438 C 183.346 177.206,183.098 177.411,182.277 178.320 M217.976 178.320 L 217.404 178.995 218.077 178.425 L 218.750 177.856 218.830 195.230 L 218.910 212.603 218.982 195.124 C 219.022 185.510,218.941 177.644,218.801 177.644 C 218.662 177.644,218.290 177.948,217.976 178.320 M201.800 181.545 C 199.825 183.526,198.276 185.146,198.359 185.146 C 198.441 185.146,200.125 183.526,202.101 181.545 C 204.076 179.565,205.625 177.944,205.542 177.944 C 205.459 177.944,203.776 179.565,201.800 181.545 M192.648 179.895 C 191.919 180.638,191.390 181.245,191.473 181.245 C 191.555 181.245,192.219 180.638,192.948 179.895 C 193.677 179.152,194.206 178.545,194.123 178.545 C 194.041 178.545,193.377 179.152,192.648 179.895 M215.593 180.720 L 214.104 182.296 215.679 180.806 C 216.545 179.987,217.254 179.279,217.254 179.231 C 217.254 179.007,216.976 179.256,215.593 180.720 M189.947 183.046 C 189.425 183.706,189.064 184.246,189.147 184.246 C 189.229 184.246,189.725 183.706,190.248 183.046 C 190.770 182.386,191.131 181.845,191.048 181.845 C 190.966 181.845,190.470 182.386,189.947 183.046 M181.733 200.188 C 181.627 200.715,181.597 201.202,181.665 201.270 C 181.733 201.338,181.882 200.969,181.995 200.450 C 182.109 199.931,182.140 199.444,182.064 199.368 C 181.987 199.292,181.838 199.660,181.733 200.188 M188.639 202.914 C 188.538 203.292,188.467 203.871,188.481 204.201 C 188.496 204.531,188.631 204.274,188.782 203.631 C 189.075 202.384,188.950 201.756,188.639 202.914 M181.064 208.402 C 181.064 210.713,181.111 211.618,181.168 210.414 C 181.225 209.211,181.225 207.320,181.167 206.213 C 181.110 205.107,181.063 206.092,181.064 208.402 M194.374 205.176 C 197.551 205.225,202.749 205.225,205.926 205.176 C 209.104 205.127,206.504 205.088,200.150 205.088 C 193.796 205.088,191.197 205.127,194.374 205.176 " stroke="none" fill="#747474" fill-rule="evenodd"></path><path id="path3" d="M175.169 87.547 C 188.908 87.590,211.392 87.590,225.131 87.547 C 238.871 87.504,227.629 87.468,200.150 87.468 C 172.671 87.468,161.429 87.504,175.169 87.547 M259.982 87.750 C 259.891 87.986,259.877 88.492,259.950 88.875 C 260.053 89.411,260.093 89.348,260.124 88.606 L 260.165 87.639 264.141 87.546 L 268.117 87.453 264.132 87.387 C 260.912 87.334,260.115 87.404,259.982 87.750 M270.747 87.537 C 271.203 87.606,271.878 87.604,272.247 87.533 C 272.616 87.462,272.243 87.405,271.418 87.408 C 270.593 87.410,270.291 87.468,270.747 87.537 M278.058 87.559 C 277.978 87.690,278.408 87.749,279.016 87.692 C 280.871 87.516,281.090 87.393,279.613 87.357 C 278.838 87.337,278.139 87.429,278.058 87.559 M268.243 88.597 C 268.154 89.242,268.200 89.610,268.351 89.459 C 268.496 89.314,268.566 88.808,268.507 88.334 C 268.408 87.540,268.387 87.561,268.243 88.597 M269.590 92.423 C 269.590 95.146,269.635 96.260,269.691 94.899 C 269.746 93.537,269.746 91.309,269.691 89.947 C 269.635 88.586,269.590 89.700,269.590 92.423 M188.586 129.182 C 188.586 136.939,188.624 140.156,188.672 136.330 C 188.719 132.504,188.719 126.157,188.672 122.226 C 188.625 118.295,188.586 121.425,188.586 129.182 M211.343 120.330 C 211.343 121.238,211.399 121.609,211.468 121.155 C 211.536 120.701,211.536 119.959,211.468 119.505 C 211.399 119.051,211.343 119.422,211.343 120.330 M157.785 122.655 C 162.129 122.702,169.151 122.702,173.389 122.655 C 177.628 122.608,174.074 122.570,165.491 122.570 C 156.909 122.570,153.442 122.609,157.785 122.655 M226.803 122.655 C 231.147 122.702,238.168 122.702,242.407 122.655 C 246.645 122.608,243.091 122.570,234.509 122.570 C 225.926 122.570,222.459 122.609,226.803 122.655 M201.334 142.161 L 200.300 143.286 201.425 142.252 C 202.473 141.289,202.689 141.035,202.459 141.035 C 202.409 141.035,201.903 141.542,201.334 142.161 M186.647 144.786 C 185.918 145.529,185.389 146.137,185.471 146.137 C 185.554 146.137,186.218 145.529,186.947 144.786 C 187.676 144.044,188.204 143.436,188.122 143.436 C 188.039 143.436,187.376 144.044,186.647 144.786 M181.754 149.297 C 181.291 149.704,181.031 150.038,181.176 150.038 C 181.322 150.038,181.758 149.700,182.146 149.287 C 183.042 148.333,182.844 148.338,181.754 149.297 M212.437 153.563 L 211.403 154.689 212.528 153.655 C 213.576 152.692,213.791 152.438,213.562 152.438 C 213.512 152.438,213.006 152.944,212.437 153.563 M197.881 157.614 L 196.999 158.590 197.974 157.708 C 198.884 156.887,199.088 156.639,198.856 156.639 C 198.804 156.639,198.365 157.078,197.881 157.614 M193.079 179.220 L 192.198 180.195 193.173 179.314 C 193.710 178.829,194.149 178.390,194.149 178.338 C 194.149 178.107,193.901 178.311,193.079 179.220 M213.189 182.821 L 212.003 184.096 213.278 182.910 C 213.980 182.257,214.554 181.684,214.554 181.635 C 214.554 181.407,214.292 181.635,213.189 182.821 M190.644 212.678 C 195.896 212.724,204.403 212.724,209.549 212.678 C 214.695 212.632,210.398 212.594,200.000 212.594 C 189.602 212.594,185.392 212.632,190.644 212.678 " stroke="none" fill="#848484" fill-rule="evenodd"></path><path id="path4" d="M149.875 87.697 C 149.796 87.903,149.767 95.904,149.810 105.476 L 149.888 122.881 150.038 105.101 C 150.120 95.322,150.150 87.322,150.103 87.322 C 150.057 87.322,149.954 87.491,149.875 87.697 M250.103 105.026 C 250.103 114.846,250.141 118.863,250.187 113.953 C 250.234 109.044,250.234 101.009,250.187 96.099 C 250.141 91.189,250.103 95.206,250.103 105.026 M281.163 87.519 C 281.354 87.614,281.470 89.533,281.470 92.598 L 281.470 97.524 280.270 97.524 L 279.070 97.524 279.070 95.292 C 279.070 93.138,278.704 92.094,278.382 93.327 C 278.296 93.656,278.342 93.853,278.484 93.765 C 278.626 93.677,278.782 94.521,278.831 95.640 L 278.920 97.674 280.270 97.674 L 281.620 97.674 281.620 92.598 C 281.620 88.725,281.530 87.504,281.238 87.444 C 281.027 87.402,280.994 87.435,281.163 87.519 M260.091 89.762 C 260.214 89.882,260.788 90.023,261.365 90.076 L 262.416 90.173 262.566 93.923 L 262.716 97.674 264.066 97.699 L 265.416 97.723 264.150 97.608 L 262.883 97.492 262.800 93.682 L 262.716 89.872 261.292 89.709 C 260.508 89.619,259.968 89.643,260.091 89.762 M266.992 89.643 C 266.208 89.705,265.566 89.853,265.566 89.972 C 265.566 90.270,268.050 90.025,268.402 89.692 C 268.559 89.544,268.626 89.447,268.552 89.476 C 268.478 89.506,267.776 89.581,266.992 89.643 M275.690 92.122 C 275.416 92.441,275.315 92.778,275.466 92.871 C 275.616 92.964,275.892 92.755,276.078 92.406 C 276.531 91.560,276.309 91.398,275.690 92.122 M272.168 95.087 L 272.168 97.585 270.832 97.479 C 270.097 97.420,269.606 97.483,269.742 97.619 C 269.877 97.754,270.513 97.822,271.153 97.770 L 272.318 97.674 272.408 95.762 C 272.490 94.025,272.538 93.902,272.934 94.412 C 273.355 94.954,273.363 94.953,273.169 94.374 C 272.490 92.342,272.168 92.572,272.168 95.087 M157.674 105.026 C 157.674 110.555,157.714 112.817,157.764 110.053 C 157.813 107.288,157.813 102.764,157.764 100.000 C 157.714 97.236,157.674 99.497,157.674 105.026 M276.973 96.615 C 276.560 97.613,275.109 97.900,274.268 97.149 C 273.909 96.829,273.907 96.853,274.257 97.314 C 274.920 98.188,276.711 97.893,277.219 96.826 C 277.442 96.360,277.562 95.917,277.487 95.842 C 277.412 95.766,277.181 96.114,276.973 96.615 M188.747 128.972 L 188.897 142.986 188.975 129.200 C 189.018 121.618,188.951 115.312,188.825 115.187 C 188.700 115.061,188.665 121.265,188.747 128.972 M211.121 118.398 C 211.003 120.315,210.970 121.948,211.049 122.026 C 211.127 122.105,211.289 120.601,211.409 118.686 C 211.529 116.770,211.561 115.137,211.481 115.057 C 211.401 114.977,211.239 116.480,211.121 118.398 M210.553 125.031 C 210.443 125.141,210.361 125.513,210.372 125.856 C 210.389 126.431,210.414 126.424,210.678 125.763 C 210.972 125.028,210.911 124.673,210.553 125.031 M218.500 126.982 C 218.475 127.423,218.377 128.030,218.282 128.333 C 218.119 128.852,218.128 128.853,218.451 128.349 C 218.639 128.056,218.737 127.449,218.669 126.999 L 218.545 126.182 218.500 126.982 M204.307 138.410 C 203.760 139.111,203.552 139.494,203.846 139.261 C 204.428 138.799,205.681 137.134,205.447 137.134 C 205.367 137.134,204.854 137.708,204.307 138.410 M201.661 141.441 L 200.322 142.986 201.886 141.497 C 202.747 140.678,203.451 139.969,203.451 139.921 C 203.451 139.574,202.804 140.122,201.661 141.441 M211.444 143.061 C 210.403 144.547,210.298 144.776,211.049 143.919 C 212.032 142.800,213.209 141.035,212.975 141.035 C 212.913 141.035,212.224 141.947,211.444 143.061 M187.085 144.711 L 185.596 146.287 187.172 144.797 C 188.636 143.414,188.885 143.136,188.661 143.136 C 188.613 143.136,187.904 143.845,187.085 144.711 M183.785 147.712 L 182.296 149.287 183.871 147.798 C 185.335 146.415,185.584 146.137,185.360 146.137 C 185.313 146.137,184.604 146.845,183.785 147.712 M217.162 148.727 C 216.369 149.484,215.769 150.153,215.830 150.214 C 215.891 150.275,216.535 149.720,217.260 148.981 C 218.959 147.250,219.047 147.276,219.094 149.512 L 219.133 151.388 219.364 149.587 C 219.718 146.817,219.325 146.663,217.162 148.727 M201.677 153.839 C 198.527 157.085,195.949 159.843,195.949 159.968 C 195.949 160.093,196.719 159.362,197.661 158.342 C 198.603 157.323,201.268 154.565,203.584 152.213 C 205.899 149.861,207.707 147.937,207.600 147.937 C 207.493 147.937,204.828 150.593,201.677 153.839 M212.038 153.639 C 211.441 154.300,210.953 154.935,210.953 155.050 C 210.953 155.165,211.054 155.131,211.179 154.974 C 211.303 154.817,211.869 154.182,212.438 153.563 C 213.006 152.944,213.393 152.438,213.297 152.438 C 213.201 152.438,212.635 152.979,212.038 153.639 M218.431 155.814 C 218.342 156.459,218.387 156.826,218.538 156.675 C 218.683 156.531,218.753 156.024,218.694 155.550 C 218.595 154.757,218.574 154.778,218.431 155.814 M194.449 161.740 C 193.926 162.401,193.565 162.941,193.648 162.941 C 193.731 162.941,194.226 162.401,194.749 161.740 C 195.272 161.080,195.632 160.540,195.549 160.540 C 195.467 160.540,194.971 161.080,194.449 161.740 M207.952 162.041 C 207.615 162.701,207.407 163.241,207.490 163.241 C 207.572 163.241,207.915 162.701,208.252 162.041 C 208.589 161.380,208.797 160.840,208.714 160.840 C 208.632 160.840,208.289 161.380,207.952 162.041 M182.779 165.975 C 182.594 166.505,182.495 166.992,182.560 167.056 C 182.624 167.120,182.828 166.739,183.012 166.208 C 183.197 165.678,183.296 165.192,183.232 165.127 C 183.168 165.063,182.964 165.445,182.779 165.975 M214.315 166.862 C 213.941 167.511,213.696 168.042,213.770 168.042 C 213.977 168.042,215.238 165.925,215.108 165.796 C 215.045 165.733,214.688 166.213,214.315 166.862 M189.932 169.134 C 189.766 169.569,189.686 169.981,189.754 170.049 C 189.822 170.117,190.022 169.761,190.197 169.258 C 190.587 168.138,190.352 168.029,189.932 169.134 M181.432 170.604 C 181.330 170.872,181.261 171.452,181.280 171.893 C 181.306 172.492,181.373 172.392,181.548 171.493 C 181.797 170.217,181.742 169.797,181.432 170.604 M197.445 174.569 L 193.698 178.395 197.524 174.648 C 199.629 172.588,201.350 170.866,201.350 170.822 C 201.350 170.607,200.925 171.015,197.445 174.569 M210.564 172.422 C 210.267 172.819,210.133 173.143,210.266 173.143 C 210.528 173.143,211.356 171.944,211.199 171.793 C 211.146 171.743,210.860 172.026,210.564 172.422 M207.672 175.919 C 206.446 177.281,205.951 177.922,206.574 177.344 C 207.681 176.316,210.209 173.443,210.005 173.444 C 209.949 173.444,208.899 174.558,207.672 175.919 M217.162 178.734 C 216.369 179.491,215.762 180.154,215.815 180.206 C 215.867 180.258,216.608 179.636,217.460 178.823 C 218.313 178.010,218.919 177.347,218.807 177.351 C 218.696 177.355,217.955 177.978,217.162 178.734 M219.055 195.259 C 218.972 204.864,219.007 212.621,219.132 212.496 C 219.257 212.371,219.325 204.512,219.282 195.031 L 219.205 177.794 219.055 195.259 M212.814 182.834 L 211.245 184.423 211.328 194.762 L 211.411 205.101 211.482 194.717 L 211.553 184.333 213.185 182.789 C 214.083 181.940,214.720 181.245,214.600 181.245 C 214.481 181.245,213.677 181.960,212.814 182.834 M197.433 186.572 L 196.399 187.697 197.524 186.663 C 198.143 186.094,198.650 185.588,198.650 185.538 C 198.650 185.308,198.396 185.524,197.433 186.572 M186.197 187.847 C 185.941 188.342,185.799 188.747,185.881 188.747 C 185.964 188.747,186.241 188.342,186.497 187.847 C 186.753 187.352,186.895 186.947,186.812 186.947 C 186.730 186.947,186.453 187.352,186.197 187.847 M195.768 188.522 C 194.353 190.155,194.072 190.547,194.327 190.536 C 194.476 190.529,195.042 189.922,195.583 189.186 C 196.635 187.756,196.731 187.411,195.768 188.522 M182.779 195.082 C 182.594 195.612,182.495 196.099,182.560 196.163 C 182.624 196.227,182.828 195.846,183.012 195.315 C 183.197 194.785,183.296 194.299,183.232 194.235 C 183.168 194.170,182.964 194.552,182.779 195.082 M182.046 197.349 C 181.935 197.459,181.854 197.831,181.864 198.175 C 181.882 198.749,181.907 198.742,182.171 198.081 C 182.465 197.346,182.404 196.991,182.046 197.349 M181.438 199.913 C 181.336 200.291,181.266 200.938,181.282 201.350 C 181.299 201.792,181.418 201.554,181.572 200.769 C 181.848 199.364,181.751 198.745,181.438 199.913 M189.219 201.522 C 189.108 201.962,189.076 202.379,189.147 202.450 C 189.217 202.521,189.366 202.219,189.476 201.779 C 189.586 201.339,189.619 200.922,189.548 200.851 C 189.477 200.780,189.329 201.082,189.219 201.522 " stroke="none" fill="#cccccc" fill-rule="evenodd"></path></g></svg>